<svg xmlns="http://www.w3.org/2000/svg" viewBox="0 0 800 550" width="800" height="550">
<defs><linearGradient id="bg" x1="0" y1="0" x2="0" y2="1"><stop offset="0" stop-color="#f3f4f6"/><stop offset=".72" stop-color="#e5e7eb"/><stop offset="1" stop-color="#d7dbe1"/></linearGradient>
<linearGradient id="b" x1="0" y1="0" x2="0" y2="1"><stop offset="0" stop-color="#3a404a"/><stop offset="1" stop-color="#171a1f"/></linearGradient>
<linearGradient id="w" x1="0" y1="0" x2="1" y2="1"><stop offset="0" stop-color="#9aa3af"/><stop offset="1" stop-color="#4b5563"/></linearGradient>
<radialGradient id="sh" cx=".5" cy=".5" r=".5"><stop offset="0" stop-color="#0e1116" stop-opacity=".35"/><stop offset="1" stop-color="#0e1116" stop-opacity="0"/></radialGradient></defs>
<rect width="800" height="550" fill="url(#bg)"/>
<ellipse cx="400" cy="400" rx="380" ry="34" fill="url(#sh)"/>
<g transform="translate(0,40)"><path d="M50 330 L55 292 Q72 262 152 252 L252 197 Q292 177 362 177 L480 177 Q540 177 592 217 L632 247 Q732 257 747 292 L749 330 Z" fill="url(#b)"/><path d="M275 245 L305 208 Q325 192 365 192 L478 192 Q525 194 565 228 L585 245 Z" fill="url(#w)" opacity=".9"/><circle cx="190" cy="330" r="46" fill="#15181d"/><circle cx="190" cy="330" r="28" fill="#c9ced6"/><circle cx="190" cy="330" r="9" fill="#6b7280"/><circle cx="610" cy="330" r="46" fill="#15181d"/><circle cx="610" cy="330" r="28" fill="#c9ced6"/><circle cx="610" cy="330" r="9" fill="#6b7280"/></g>
<text x="770" y="36" text-anchor="end" font-family="Arial,sans-serif" font-size="15" letter-spacing="2" fill="#9ca3af">DEMO IMAGE · SEDAN</text>
</svg>